<mxfile host="app.diagrams.net" modified="2024-01-02T14:39:49.029Z" agent="Mozilla/5.0 (Windows NT 10.0; Win64; x64) AppleWebKit/537.36 (KHTML, like Gecko) Chrome/120.0.0.0 Safari/537.36" version="22.1.16" etag="T4KcVN61xev2ReBkPLBN" type="device">
  <diagram id="5lRJtSI_R14O369N1VmJ" name="第1頁">
    <mxGraphModel dx="1323" dy="1165" grid="0" gridSize="10" guides="1" tooltips="1" connect="1" arrows="1" fold="1" page="0" pageScale="1" pageWidth="827" pageHeight="1169" math="0" shadow="0">
      <root>
        <mxCell id="0" />
        <mxCell id="1" parent="0" />
        <mxCell id="eOm3uXfGr92SJxP6li1j-3" style="edgeStyle=orthogonalEdgeStyle;rounded=0;orthogonalLoop=1;jettySize=auto;html=1;exitX=0.5;exitY=1;exitDx=0;exitDy=0;entryX=0.5;entryY=0;entryDx=0;entryDy=0;" edge="1" parent="1" source="wkYyvQzpivgb2VtziBDL-2" target="wkYyvQzpivgb2VtziBDL-3">
          <mxGeometry relative="1" as="geometry" />
        </mxCell>
        <mxCell id="wkYyvQzpivgb2VtziBDL-2" value="查詢新用戶名/姓名" style="rounded=0;whiteSpace=wrap;html=1;fontSize=16;" parent="1" vertex="1">
          <mxGeometry x="6.25" y="118" width="152.5" height="63" as="geometry" />
        </mxCell>
        <mxCell id="wkYyvQzpivgb2VtziBDL-3" value="查詢用戶表" style="shape=parallelogram;perimeter=parallelogramPerimeter;whiteSpace=wrap;html=1;fixedSize=1;fontSize=16;rotation=0;" parent="1" vertex="1">
          <mxGeometry x="5.75" y="217" width="152.5" height="63" as="geometry" />
        </mxCell>
        <mxCell id="eOm3uXfGr92SJxP6li1j-4" style="edgeStyle=orthogonalEdgeStyle;rounded=0;orthogonalLoop=1;jettySize=auto;html=1;exitX=0.5;exitY=1;exitDx=0;exitDy=0;entryX=0.5;entryY=0;entryDx=0;entryDy=0;" edge="1" parent="1" source="wkYyvQzpivgb2VtziBDL-4" target="wkYyvQzpivgb2VtziBDL-5">
          <mxGeometry relative="1" as="geometry" />
        </mxCell>
        <mxCell id="eOm3uXfGr92SJxP6li1j-5" value="不存在" style="edgeLabel;html=1;align=center;verticalAlign=middle;resizable=0;points=[];" vertex="1" connectable="0" parent="eOm3uXfGr92SJxP6li1j-4">
          <mxGeometry x="-0.571" y="-6" relative="1" as="geometry">
            <mxPoint y="1" as="offset" />
          </mxGeometry>
        </mxCell>
        <mxCell id="eOm3uXfGr92SJxP6li1j-12" style="edgeStyle=orthogonalEdgeStyle;rounded=0;orthogonalLoop=1;jettySize=auto;html=1;exitX=1;exitY=0.5;exitDx=0;exitDy=0;entryX=0.5;entryY=0;entryDx=0;entryDy=0;" edge="1" parent="1" source="wkYyvQzpivgb2VtziBDL-4" target="wkYyvQzpivgb2VtziBDL-2">
          <mxGeometry relative="1" as="geometry">
            <Array as="points">
              <mxPoint x="316" y="365" />
              <mxPoint x="316" y="98" />
              <mxPoint x="83" y="98" />
            </Array>
          </mxGeometry>
        </mxCell>
        <mxCell id="eOm3uXfGr92SJxP6li1j-13" value="已存在" style="edgeLabel;html=1;align=center;verticalAlign=middle;resizable=0;points=[];" vertex="1" connectable="0" parent="eOm3uXfGr92SJxP6li1j-12">
          <mxGeometry x="-0.1302" y="3" relative="1" as="geometry">
            <mxPoint as="offset" />
          </mxGeometry>
        </mxCell>
        <mxCell id="wkYyvQzpivgb2VtziBDL-4" value="判斷已有該用戶/姓名" style="rhombus;whiteSpace=wrap;html=1;fontSize=16;rotation=0;" parent="1" vertex="1">
          <mxGeometry x="5.25" y="333" width="153.5" height="63" as="geometry" />
        </mxCell>
        <mxCell id="wkYyvQzpivgb2VtziBDL-5" value="添加用戶名稱、真實姓名、密碼、確認密碼、用戶類型" style="rounded=0;whiteSpace=wrap;html=1;fontSize=16;" parent="1" vertex="1">
          <mxGeometry x="4.25" y="452" width="152.5" height="63" as="geometry" />
        </mxCell>
        <mxCell id="eOm3uXfGr92SJxP6li1j-6" style="edgeStyle=orthogonalEdgeStyle;rounded=0;orthogonalLoop=1;jettySize=auto;html=1;exitX=0.5;exitY=1;exitDx=0;exitDy=0;entryX=0.5;entryY=0;entryDx=0;entryDy=0;" edge="1" parent="1" source="wkYyvQzpivgb2VtziBDL-6" target="wkYyvQzpivgb2VtziBDL-7">
          <mxGeometry relative="1" as="geometry" />
        </mxCell>
        <mxCell id="wkYyvQzpivgb2VtziBDL-6" value="查詢用戶表" style="shape=parallelogram;perimeter=parallelogramPerimeter;whiteSpace=wrap;html=1;fixedSize=1;fontSize=16;rotation=0;" parent="1" vertex="1">
          <mxGeometry x="5.25" y="542" width="152.5" height="63" as="geometry" />
        </mxCell>
        <mxCell id="eOm3uXfGr92SJxP6li1j-10" style="edgeStyle=orthogonalEdgeStyle;rounded=0;orthogonalLoop=1;jettySize=auto;html=1;exitX=1;exitY=0.5;exitDx=0;exitDy=0;entryX=0.5;entryY=0;entryDx=0;entryDy=0;" edge="1" parent="1" source="wkYyvQzpivgb2VtziBDL-7" target="wkYyvQzpivgb2VtziBDL-5">
          <mxGeometry relative="1" as="geometry">
            <Array as="points">
              <mxPoint x="296" y="678" />
              <mxPoint x="296" y="432" />
              <mxPoint x="81" y="432" />
            </Array>
          </mxGeometry>
        </mxCell>
        <mxCell id="eOm3uXfGr92SJxP6li1j-11" value="正確" style="edgeLabel;html=1;align=center;verticalAlign=middle;resizable=0;points=[];" vertex="1" connectable="0" parent="eOm3uXfGr92SJxP6li1j-10">
          <mxGeometry x="-0.148" relative="1" as="geometry">
            <mxPoint y="-1" as="offset" />
          </mxGeometry>
        </mxCell>
        <mxCell id="wkYyvQzpivgb2VtziBDL-7" value="驗證輸入信息是否正確" style="rhombus;whiteSpace=wrap;html=1;fontSize=16;rotation=0;" parent="1" vertex="1">
          <mxGeometry x="3.75" y="646" width="153.5" height="63" as="geometry" />
        </mxCell>
        <mxCell id="wkYyvQzpivgb2VtziBDL-8" value="刷新用戶列表" style="rounded=0;whiteSpace=wrap;html=1;fontSize=16;" parent="1" vertex="1">
          <mxGeometry x="13" y="759" width="152.5" height="63" as="geometry" />
        </mxCell>
        <mxCell id="wkYyvQzpivgb2VtziBDL-14" value="" style="html=1;verticalAlign=bottom;endArrow=block;curved=0;rounded=0;fontSize=12;startSize=8;endSize=8;exitX=0.5;exitY=1;exitDx=0;exitDy=0;entryX=0.5;entryY=0;entryDx=0;entryDy=0;" parent="1" source="wkYyvQzpivgb2VtziBDL-3" target="wkYyvQzpivgb2VtziBDL-4" edge="1">
          <mxGeometry x="-0.3913" y="13" width="80" relative="1" as="geometry">
            <mxPoint x="160" y="589" as="sourcePoint" />
            <mxPoint x="240" y="589" as="targetPoint" />
            <mxPoint as="offset" />
          </mxGeometry>
        </mxCell>
        <mxCell id="wkYyvQzpivgb2VtziBDL-16" value="" style="html=1;verticalAlign=bottom;endArrow=block;curved=0;rounded=0;fontSize=12;startSize=8;endSize=8;exitX=0.5;exitY=1;exitDx=0;exitDy=0;entryX=0.5;entryY=0;entryDx=0;entryDy=0;" parent="1" source="wkYyvQzpivgb2VtziBDL-5" target="wkYyvQzpivgb2VtziBDL-6" edge="1">
          <mxGeometry width="80" relative="1" as="geometry">
            <mxPoint x="160" y="389" as="sourcePoint" />
            <mxPoint x="240" y="389" as="targetPoint" />
          </mxGeometry>
        </mxCell>
        <mxCell id="wkYyvQzpivgb2VtziBDL-17" value="" style="html=1;verticalAlign=bottom;endArrow=block;curved=0;rounded=0;fontSize=12;startSize=8;endSize=8;exitX=0.5;exitY=1;exitDx=0;exitDy=0;entryX=0.5;entryY=0;entryDx=0;entryDy=0;exitPerimeter=0;" parent="1" source="eOm3uXfGr92SJxP6li1j-1" target="wkYyvQzpivgb2VtziBDL-2" edge="1">
          <mxGeometry width="80" relative="1" as="geometry">
            <mxPoint x="82.5" y="65" as="sourcePoint" />
            <mxPoint x="240" y="189" as="targetPoint" />
          </mxGeometry>
        </mxCell>
        <mxCell id="wkYyvQzpivgb2VtziBDL-19" value="" style="html=1;verticalAlign=bottom;endArrow=block;curved=0;rounded=0;fontSize=12;startSize=8;endSize=8;exitX=0.5;exitY=1;exitDx=0;exitDy=0;entryX=0.452;entryY=0.042;entryDx=0;entryDy=0;entryPerimeter=0;" parent="1" source="wkYyvQzpivgb2VtziBDL-7" target="wkYyvQzpivgb2VtziBDL-8" edge="1">
          <mxGeometry x="0.007" width="80" relative="1" as="geometry">
            <mxPoint x="160" y="689" as="sourcePoint" />
            <mxPoint x="240" y="689" as="targetPoint" />
            <mxPoint as="offset" />
          </mxGeometry>
        </mxCell>
        <mxCell id="eOm3uXfGr92SJxP6li1j-9" value="不正確" style="edgeLabel;html=1;align=center;verticalAlign=middle;resizable=0;points=[];" vertex="1" connectable="0" parent="wkYyvQzpivgb2VtziBDL-19">
          <mxGeometry x="-0.1779" y="3" relative="1" as="geometry">
            <mxPoint as="offset" />
          </mxGeometry>
        </mxCell>
        <mxCell id="eOm3uXfGr92SJxP6li1j-1" value="開始" style="strokeWidth=2;html=1;shape=mxgraph.flowchart.terminator;whiteSpace=wrap;" vertex="1" parent="1">
          <mxGeometry x="32.5" y="-3" width="100" height="60" as="geometry" />
        </mxCell>
        <mxCell id="eOm3uXfGr92SJxP6li1j-7" value="結束" style="strokeWidth=2;html=1;shape=mxgraph.flowchart.terminator;whiteSpace=wrap;" vertex="1" parent="1">
          <mxGeometry x="39.25" y="864" width="100" height="60" as="geometry" />
        </mxCell>
        <mxCell id="eOm3uXfGr92SJxP6li1j-8" style="edgeStyle=orthogonalEdgeStyle;rounded=0;orthogonalLoop=1;jettySize=auto;html=1;exitX=0.5;exitY=1;exitDx=0;exitDy=0;entryX=0.5;entryY=0;entryDx=0;entryDy=0;entryPerimeter=0;" edge="1" parent="1" source="wkYyvQzpivgb2VtziBDL-8" target="eOm3uXfGr92SJxP6li1j-7">
          <mxGeometry relative="1" as="geometry" />
        </mxCell>
      </root>
    </mxGraphModel>
  </diagram>
</mxfile>
